<?xml version="1.0" standalone="no"?>
<!DOCTYPE svg PUBLIC "-//W3C//DTD SVG 20010904//EN"
 "http://www.w3.org/TR/2001/REC-SVG-20010904/DTD/svg10.dtd">
<svg version="1.0" xmlns="http://www.w3.org/2000/svg"
 width="612.000000pt" height="609.000000pt" viewBox="0 0 612.000000 609.000000"
 preserveAspectRatio="xMidYMid meet">

<g transform="translate(0.000000,609.000000) scale(0.100000,-0.100000)"
fill="#000000" stroke="none">
<path d="M610 4735 l0 -235 345 0 345 0 0 -1540 0 -1540 240 0 240 0 0 1775 0
1775 -585 0 -585 0 0 -235z"/>
<path d="M3690 4960 c-148 -15 -271 -41 -405 -85 -569 -186 -1007 -649 -1158
-1225 -73 -278 -77 -596 -11 -870 121 -498 467 -934 919 -1159 140 -70 258
-111 416 -145 254 -55 276 -56 1473 -56 l1106 0 0 229 0 229 -1107 5 c-1062 4
-1113 5 -1238 25 -158 26 -256 51 -354 92 -338 139 -609 432 -729 786 -83 245
-84 573 -2 814 155 456 540 790 1010 876 137 25 344 23 477 -5 248 -52 456
-160 637 -332 239 -226 381 -520 404 -834 l7 -90 225 -3 c123 -1 229 -1 235 2
14 5 3 167 -19 296 -45 257 -171 546 -329 750 -231 299 -514 501 -861 615
-217 72 -495 105 -696 85z"/>
<path d="M92 4033 l3 -228 258 -3 257 -2 0 -1190 0 -1190 230 0 230 0 0 1420
0 1420 -490 0 -490 0 2 -227z"/>
<path d="M3689 4195 c-216 -31 -413 -131 -567 -287 -88 -90 -137 -158 -190
-263 -77 -155 -102 -266 -102 -452 0 -141 17 -240 62 -357 60 -156 128 -256
254 -375 123 -117 264 -197 416 -237 181 -47 179 -47 1356 -51 l1112 -5 0 226
0 226 -942 0 c-1204 1 -1341 7 -1483 67 -135 57 -251 185 -300 332 -81 246 13
507 236 651 141 91 333 110 495 49 181 -68 329 -258 353 -453 l6 -51 219 -3
c121 -1 223 1 227 5 11 13 -9 163 -35 254 -33 115 -66 187 -130 283 -164 246
-429 409 -726 446 -103 12 -150 12 -261 -5z"/>
</g>
</svg>
