<?xml version="1.0" standalone="no"?>
<!DOCTYPE svg PUBLIC "-//W3C//DTD SVG 20010904//EN"
 "http://www.w3.org/TR/2001/REC-SVG-20010904/DTD/svg10.dtd">
<svg version="1.0" xmlns="http://www.w3.org/2000/svg"
 width="393.000000pt" height="320.000000pt" viewBox="0 0 393.000000 320.000000"
 preserveAspectRatio="xMidYMid meet">

<g transform="translate(0.000000,320.000000) scale(0.100000,-0.100000)"
fill="#000000" stroke="none">
<path d="M1267 1954 c-4 -4 -7 -81 -7 -171 l0 -163 39 0 c41 0 51 10 143 145
l28 40 1 -40 c0 -22 0 -58 0 -80 -2 -55 9 -67 55 -63 l39 3 0 165 0 165 -37 3
c-39 3 -30 12 -129 -123 l-44 -60 -5 90 -5 90 -35 3 c-20 2 -39 0 -43 -4z"/>
<path d="M1607 1954 c-4 -4 -7 -22 -7 -41 0 -33 0 -33 50 -33 l50 0 0 -131 0
-130 43 3 42 3 5 125 5 125 40 3 c49 4 57 12 53 48 l-3 29 -136 3 c-74 1 -138
-1 -142 -4z"/>
<path d="M1920 1745 l0 -127 90 4 c102 3 126 18 137 80 8 51 -27 85 -97 94
-50 7 -51 7 -48 38 3 30 2 31 -39 34 l-43 3 0 -126z m138 -14 c26 -16 9 -46
-26 -47 -27 -1 -32 3 -32 22 0 30 30 43 58 25z"/>
<path d="M2168 1781 c-3 -50 -2 -106 1 -123 6 -31 10 -33 46 -33 l40 0 0 120
0 120 -41 3 -41 3 -5 -90z"/>
<path d="M2554 1689 c-3 -6 2 -23 13 -37 21 -28 71 -40 118 -28 23 6 49 51 40
67 -10 15 -52 10 -59 -6 -3 -8 -14 -15 -25 -15 -10 0 -21 7 -25 15 -6 17 -52
20 -62 4z"/>
<path d="M2245 1601 c-81 -20 -105 -60 -105 -174 0 -61 4 -80 23 -108 53 -79
192 -77 251 4 17 23 21 43 21 111 0 88 -13 122 -58 150 -28 17 -93 26 -132 17z
m85 -90 c14 -27 13 -144 -2 -159 -21 -21 -66 -14 -84 13 -19 29 -16 124 5 149
19 23 68 20 81 -3z"/>
<path d="M1260 1435 l0 -165 45 0 45 0 0 124 c0 141 -4 136 98 136 l53 0 -3
33 -3 32 -117 3 -118 3 0 -166z"/>
<path d="M1530 1435 l0 -165 125 0 125 0 0 35 0 35 -80 0 -80 0 0 30 0 29 73
3 72 3 0 30 0 30 -70 5 c-68 5 -70 6 -73 33 l-3 27 80 0 81 0 0 35 0 35 -125
0 -125 0 0 -165z"/>
<path d="M1830 1435 l0 -165 45 0 c29 0 45 4 46 13 0 6 1 31 1 53 l0 41 66 6
c58 4 70 9 94 36 33 37 37 87 11 131 -24 41 -53 50 -163 50 l-100 0 0 -165z
m180 76 c13 -25 13 -27 -6 -45 -8 -9 -31 -16 -50 -16 -33 0 -34 1 -34 40 0 40
0 40 40 40 29 0 42 -5 50 -19z"/>
<path d="M2485 1588 c-3 -8 -4 -81 -3 -163 l3 -150 44 0 c44 0 44 0 107 88
l64 89 0 -91 0 -91 45 0 45 0 2 150 c0 83 1 156 2 163 1 7 -15 13 -41 15 -41
3 -42 2 -89 -65 -83 -119 -78 -117 -84 -22 l-5 84 -43 3 c-28 2 -44 -1 -47
-10z"/>
</g>
</svg>
