<?xml version="1.0" standalone="no"?>
<!DOCTYPE svg PUBLIC "-//W3C//DTD SVG 20010904//EN"
 "http://www.w3.org/TR/2001/REC-SVG-20010904/DTD/svg10.dtd">
<svg version="1.0" xmlns="http://www.w3.org/2000/svg"
 width="1680.000000pt" height="929.000000pt" viewBox="0 0 1680.000000 929.000000"
 preserveAspectRatio="xMidYMid meet">

<g transform="translate(0.000000,929.000000) scale(0.100000,-0.100000)"
fill="#000000" stroke="none">
<path d="M2 4648 l3 -4643 8398 -3 8397 -2 0 4645 0 4645 -8400 0 -8400 0 2
-4642z m8718 2596 c152 -43 251 -159 279 -329 9 -53 11 -666 9 -2455 l-3
-2385 -180 0 -180 0 -5 2393 -5 2394 -28 24 c-40 34 -97 33 -137 -3 -32 -29
-33 -32 -330 -835 l-114 -308 -193 0 c-116 0 -193 4 -193 10 0 5 61 172 136
372 74 200 141 379 148 398 7 19 43 118 80 220 112 309 179 411 309 475 110
53 278 65 407 29z m1339 6 c149 -20 262 -100 334 -238 19 -37 96 -229 172
-427 350 -924 400 -1052 417 -1077 26 -38 86 -53 132 -34 68 29 66 1 66 738 0
721 1 738 57 840 62 113 167 178 324 199 228 31 412 -58 511 -247 32 -60 698
-1832 698 -1856 0 -4 -87 -8 -193 -8 l-194 0 -88 238 c-48 130 -142 386 -210
567 -67 182 -169 456 -225 610 -117 317 -134 345 -208 345 -29 0 -49 -7 -69
-24 l-28 -24 -6 -694 c-6 -742 -5 -733 -58 -836 -51 -100 -153 -176 -269 -201
-68 -14 -206 -14 -274 0 -120 25 -222 106 -292 233 -36 65 -54 108 -276 696
-218 574 -289 759 -305 790 -41 79 -152 83 -188 7 -15 -32 -17 -114 -17 -871
l0 -836 -182 2 -183 3 0 870 c0 819 1 874 19 938 21 78 79 173 128 210 101 78
244 108 407 87z m4681 -175 l0 -185 -870 0 -870 0 0 185 0 185 870 0 870 0 0
-185z m-10145 122 c294 -86 445 -287 445 -593 0 -287 -119 -491 -348 -596
-120 -55 -154 -59 -587 -65 -244 -3 -405 -9 -412 -15 -10 -8 -13 -100 -13
-399 l0 -389 -182 2 -183 3 0 460 c0 424 1 464 19 514 25 73 75 125 144 153
56 22 69 22 537 28 471 5 481 5 521 27 184 99 184 400 -1 501 -27 15 -93 17
-627 20 l-598 3 0 185 0 185 613 -3 c547 -3 618 -6 672 -21z m2150 0 c207 -60
346 -186 412 -373 25 -73 27 -91 27 -229 0 -139 -2 -156 -28 -230 -37 -107
-82 -178 -160 -253 -59 -57 -186 -132 -223 -132 -21 0 -16 -13 51 -127 171
-292 397 -683 402 -697 5 -14 -15 -16 -193 -16 l-200 0 -120 203 c-66 111
-172 291 -237 399 -65 111 -123 198 -133 200 -9 2 -140 1 -292 -2 l-276 -5 -5
-395 -5 -395 -183 -3 -183 -2 3 472 c3 425 5 478 21 519 24 62 77 114 146 141
55 22 68 23 561 28 370 4 513 8 533 18 53 23 98 65 125 116 24 45 27 62 27
146 0 79 -4 102 -22 136 -30 56 -94 109 -148 123 -30 7 -239 11 -644 11 l-601
0 0 185 0 186 643 -3 c572 -3 649 -6 702 -21z m7983 -879 l-3 -173 -585 -5
c-583 -5 -585 -5 -643 -28 -91 -37 -133 -108 -144 -241 -7 -88 9 -196 37 -250
24 -48 55 -75 115 -103 l50 -23 593 -3 592 -3 0 -190 0 -190 -622 3 c-696 4
-665 1 -826 78 -149 71 -243 192 -278 360 -12 60 -15 127 -12 330 l3 255 36
75 c89 185 214 251 509 269 69 5 362 9 653 10 l527 1 -2 -172z m-1563 -2150
c60 -13 130 -47 174 -84 61 -51 122 -154 215 -361 51 -114 165 -365 254 -558
88 -192 195 -426 237 -520 91 -199 112 -230 164 -246 74 -22 135 6 160 74 8
20 11 287 11 850 l0 822 180 3 180 2 -2 -892 c-3 -886 -3 -893 -24 -950 -67
-175 -191 -255 -409 -265 -193 -9 -306 29 -408 135 -66 70 -37 12 -438 892
-171 377 -320 697 -330 711 -40 57 -147 65 -198 15 l-26 -26 -3 -850 -2 -850
-183 2 -182 3 0 875 0 875 22 71 c38 121 119 209 232 254 91 35 260 44 376 18z
m-9746 -41 c83 -22 208 -88 267 -140 107 -94 172 -246 181 -422 15 -272 -109
-510 -320 -615 -44 -22 -86 -40 -93 -40 -8 0 -14 -5 -14 -11 0 -6 56 -106 123
-222 292 -500 347 -596 347 -601 0 -4 -90 -5 -201 -4 l-201 3 -235 398 -235
397 -289 0 c-263 0 -290 -2 -296 -17 -4 -9 -7 -188 -7 -398 l-1 -380 -182 -3
-183 -2 0 452 c0 490 3 523 54 597 28 40 61 63 128 88 37 13 112 16 528 18
313 2 500 7 526 14 104 28 172 120 181 245 9 122 -38 219 -130 269 -42 22 -43
22 -664 25 l-623 3 0 185 0 185 638 -4 c561 -3 645 -5 701 -20z m2521 -162 l0
-185 -872 2 -873 3 -3 183 -2 182 875 0 875 0 0 -185z m2180 0 l0 -185 -482 0
c-526 0 -565 -4 -674 -57 -121 -59 -195 -157 -235 -310 -29 -113 -40 -287 -29
-424 27 -304 121 -449 335 -520 64 -21 92 -23 345 -27 186 -3 292 0 327 8 74
16 125 57 159 127 25 50 29 70 29 143 0 105 -21 165 -75 214 -21 19 -56 39
-77 45 -22 7 -146 11 -300 11 l-263 0 0 160 0 160 290 0 c325 0 399 -9 503
-62 117 -59 210 -191 242 -343 19 -89 19 -262 1 -357 -45 -235 -186 -389 -412
-449 -66 -18 -117 -22 -310 -26 -366 -8 -537 16 -709 101 -310 153 -455 455
-455 946 0 460 146 768 435 918 83 43 189 78 277 91 40 6 84 13 98 15 14 2
240 4 503 5 l477 1 0 -185z m3127 175 c128 -16 230 -46 333 -97 80 -39 109
-60 185 -137 186 -186 258 -408 259 -796 2 -393 -78 -629 -274 -813 -132 -125
-304 -195 -528 -217 -128 -13 -791 -12 -910 0 -321 34 -551 176 -675 418 -89
173 -120 330 -121 607 0 223 13 320 64 477 103 320 351 516 701 557 106 12
869 13 966 1z m-5327 -865 l0 -174 -592 -3 -593 -3 -55 -26 c-101 -47 -135
-132 -128 -313 6 -158 51 -237 155 -276 52 -19 78 -20 643 -20 l590 0 0 -196
0 -195 -612 3 c-594 4 -616 5 -693 26 -227 62 -366 190 -420 387 -21 77 -31
392 -17 532 22 213 134 348 333 399 105 27 211 31 807 33 l582 1 0 -175z"/>
<path d="M10630 3790 c-324 -6 -349 -7 -404 -28 -87 -32 -135 -63 -193 -124
-64 -68 -97 -133 -125 -246 -20 -76 -23 -112 -22 -292 0 -177 3 -216 22 -282
45 -164 122 -267 244 -327 114 -56 159 -61 624 -61 384 0 427 2 496 19 104 27
172 63 235 127 67 67 108 152 135 281 27 134 22 427 -10 545 -44 162 -121 267
-240 327 -128 65 -191 70 -762 61z m685 -509 c66 -30 115 -104 115 -175 0 -84
-68 -167 -153 -186 -186 -42 -313 178 -184 319 53 57 149 76 222 42z"/>
</g>
</svg>
