<?xml version="1.0" standalone="no"?>
<!DOCTYPE svg PUBLIC "-//W3C//DTD SVG 20010904//EN"
 "http://www.w3.org/TR/2001/REC-SVG-20010904/DTD/svg10.dtd">
<svg version="1.0" xmlns="http://www.w3.org/2000/svg"
 width="800.000000pt" height="652.000000pt" viewBox="0 0 800.000000 652.000000"
 preserveAspectRatio="xMidYMid meet">

<g transform="translate(0.000000,652.000000) scale(0.100000,-0.100000)"
fill="#000000" stroke="none">
<path d="M2565 3967 c-3 -7 -4 -156 -3 -332 l3 -320 80 -3 81 -3 134 188 135
188 6 -185 c3 -102 6 -186 7 -187 6 -8 171 -1 174 7 2 5 2 156 0 335 l-3 325
-78 0 -79 0 -139 -196 -138 -195 -3 195 -2 196 -86 0 c-59 0 -86 -4 -89 -13z"/>
<path d="M3267 3973 c-9 -8 -9 -106 -1 -127 5 -13 24 -16 100 -16 l94 0 2
-257 3 -258 88 -3 87 -3 0 260 0 260 93 3 92 3 3 73 3 72 -279 0 c-153 0 -282
-3 -285 -7z"/>
<path d="M3917 3803 c-4 -3 -7 -116 -7 -250 l0 -243 160 0 c179 0 209 7 253
59 53 63 56 143 10 213 -34 50 -82 71 -179 76 l-82 4 1 62 c0 34 -3 68 -7 74
-8 13 -137 17 -149 5z m281 -275 c17 -17 15 -74 -4 -92 -10 -11 -34 -16 -70
-16 l-54 0 0 60 0 60 58 0 c32 0 63 -5 70 -12z"/>
<path d="M4426 3801 c-9 -14 -10 -466 -2 -480 4 -6 37 -11 81 -11 69 0 75 2
80 23 3 12 4 123 3 247 l-3 225 -77 3 c-42 2 -79 -1 -82 -7z"/>
<path d="M5207 3453 c-13 -12 -7 -58 12 -89 27 -44 76 -64 159 -64 83 0 126
23 156 84 25 52 14 70 -47 74 -45 3 -47 2 -61 -32 -13 -31 -20 -36 -48 -36
-37 0 -58 15 -58 41 0 9 -7 20 -16 23 -21 8 -89 8 -97 -1z"/>
<path d="M4559 3263 c-51 -8 -132 -66 -162 -114 -35 -58 -51 -160 -44 -286 12
-201 104 -286 309 -285 143 1 216 42 268 149 17 37 20 62 20 195 0 172 -10
210 -72 268 -59 57 -103 73 -203 76 -49 1 -102 0 -116 -3z m139 -144 c49 -17
64 -51 70 -155 6 -127 -3 -181 -38 -216 -41 -40 -106 -40 -152 1 l-33 29 -3
130 c-4 147 6 183 61 207 39 17 55 18 95 4z"/>
<path d="M2577 3254 c-4 -4 -7 -152 -7 -329 0 -236 3 -324 12 -333 15 -15 122
-16 149 -2 18 10 19 24 19 265 l0 255 133 0 c72 0 138 4 145 9 9 5 12 27 10
72 l-3 64 -226 3 c-124 1 -228 -1 -232 -4z"/>
<path d="M3117 3253 c-4 -3 -7 -151 -7 -328 0 -236 3 -324 12 -333 13 -13 451
-18 482 -6 12 5 16 21 16 70 0 77 10 73 -190 77 l-144 2 -1 55 c0 53 1 55 30
61 17 4 85 7 151 8 134 1 134 1 134 66 0 65 0 65 -134 66 -66 1 -134 4 -151 8
-28 6 -29 9 -28 54 0 26 1 52 2 57 1 6 61 10 160 10 176 0 171 -2 171 70 0 74
15 70 -254 70 -134 0 -246 -3 -249 -7z"/>
<path d="M3737 3254 c-4 -4 -7 -155 -7 -335 l0 -327 23 -6 c28 -7 105 -7 134
0 21 6 23 12 25 118 l3 111 105 5 c153 8 221 45 256 136 40 106 -3 223 -101
273 -47 25 -58 26 -240 29 -105 2 -194 0 -198 -4z m343 -152 c29 -23 33 -91 7
-120 -21 -23 -74 -33 -133 -25 l-44 6 0 78 0 79 74 0 c56 0 79 -4 96 -18z"/>
<path d="M5067 3254 c-4 -4 -7 -155 -7 -335 0 -289 2 -328 16 -333 20 -8 102
-8 130 0 13 3 74 79 155 194 l134 188 3 -181 c1 -112 7 -185 13 -194 12 -14
105 -18 147 -7 l22 6 -2 332 -3 331 -80 0 -80 0 -135 -193 -135 -194 -5 194
-5 193 -80 3 c-45 1 -84 0 -88 -4z"/>
</g>
</svg>
